<svg width="82" height="56" viewBox="0 0 82 56" fill="none" xmlns="http://www.w3.org/2000/svg">
<path d="M76.9563 41.586C77.4992 41.586 78.063 41.7013 78.6476 41.9321C79.2323 42.1629 79.796 42.4672 80.3389 42.8448H80.3076C80.8505 43.2225 81.2681 43.7365 81.5604 44.3869C81.8527 45.0374 81.9989 45.7822 81.9989 46.6214V50.9331C81.9989 52.6325 81.4351 53.9019 80.3076 54.7411C79.7647 55.1398 79.201 55.4545 78.6163 55.6853C78.0525 55.8951 77.4992 56 76.9563 56H70.1285C69.5856 56 69.0219 55.8951 68.4372 55.6853C67.8734 55.4545 67.3201 55.1398 66.7772 54.7411C65.6497 53.9019 65.0859 52.6325 65.0859 50.9331V48.8559C65.0859 47.8698 65.7019 47.3767 66.9338 47.3767C68.1866 47.3767 68.8131 47.8698 68.8131 48.8559V50.6813C68.8131 51.2268 68.9697 51.7198 69.2829 52.1604C69.5961 52.6011 70.1389 52.8214 70.9115 52.8214H76.1733C76.9459 52.8214 77.4888 52.6011 77.802 52.1604C78.1152 51.7198 78.2718 51.2268 78.2718 50.6813V46.8732C78.2718 46.3487 78.1152 45.8661 77.802 45.4255C77.4888 44.9639 76.9459 44.7331 76.1733 44.7331H70.1285C69.0427 44.7331 67.9256 44.3345 66.7772 43.5372C65.6497 42.656 65.0859 41.3866 65.0859 39.7291V35.984C65.0859 35.1447 65.2321 34.4104 65.5244 33.781C65.8167 33.1305 66.2343 32.606 66.7772 32.2074H66.7459C67.2888 31.8507 67.8526 31.557 68.4372 31.3262C69.0219 31.0954 69.5856 30.98 70.1285 30.98H76.9563C77.4992 30.98 78.063 31.0954 78.6476 31.3262C79.2323 31.557 79.796 31.8507 80.3389 32.2074H80.3076C80.8505 32.606 81.2681 33.1305 81.5604 33.781C81.8527 34.4104 81.9989 35.1447 81.9989 35.984V37.8408C81.9989 38.8269 81.3725 39.32 80.1197 39.32C78.8878 39.32 78.2718 38.8269 78.2718 37.8408V36.2672C78.2718 35.7427 78.1152 35.2601 77.802 34.8195C77.4888 34.3789 76.9459 34.1586 76.1733 34.1586H70.9115C70.1389 34.1586 69.5961 34.3789 69.2829 34.8195C68.9697 35.2601 68.8131 35.7427 68.8131 36.2672V39.4773C68.8131 40.0229 68.9697 40.5159 69.2829 40.9565C69.5961 41.3761 70.1389 41.586 70.9115 41.586H76.9563Z" fill="black"/>
<path d="M1.97318 56C1.20061 56 0.678603 55.8007 0.407161 55.402C0.135718 55.0034 0 54.5628 0 54.0802V32.8683C0 32.3857 0.135718 31.9556 0.407161 31.5779C0.678603 31.1793 1.20061 30.98 1.97318 30.98L15.6837 30.98C16.4562 30.98 16.8634 31.5045 16.9052 32.5536C16.9469 33.6236 16.5398 34.1586 15.6837 34.1586H3.69579V52.8214H15.715C16.4876 52.8214 16.8843 53.3354 16.9052 54.3635C16.9469 55.4545 16.5502 56 15.715 56H1.97318ZM11.7138 42.9707C11.7138 43.705 11.4528 44.324 10.9308 44.8275C10.4297 45.3311 9.81369 45.5829 9.08289 45.5829C8.37296 45.5829 7.76743 45.3311 7.26631 44.8275C6.76518 44.324 6.51462 43.705 6.51462 42.9707C6.51462 42.2364 6.76518 41.6174 7.26631 41.1139C7.76743 40.6103 8.37296 40.3586 9.08289 40.3586C9.81369 40.3586 10.4297 40.6103 10.9308 41.1139C11.4528 41.6174 11.7138 42.2364 11.7138 42.9707Z" fill="black"/>
<path d="M22.5279 25.2656C21.7553 25.2656 21.2333 25.0663 20.9618 24.6677C20.6904 24.269 20.5547 23.8284 20.5547 23.3459V2.13391C20.5547 1.65134 20.6904 1.22123 20.9618 0.843566C21.2333 0.444924 21.7553 0.245605 22.5279 0.245605L36.2384 0.245605C37.0109 0.245605 37.4181 0.770136 37.4598 1.81919C37.5016 2.88923 37.0944 3.42425 36.2384 3.42425H24.2505V22.087H36.2697C37.0422 22.087 37.439 22.601 37.4598 23.6291C37.5016 24.7201 37.1049 25.2656 36.2697 25.2656H22.5279ZM32.2685 12.2363C32.2685 12.9707 32.0075 13.5896 31.4855 14.0932C30.9843 14.5967 30.3684 14.8485 29.6376 14.8485C28.9276 14.8485 28.3221 14.5967 27.821 14.0932C27.3199 13.5896 27.0693 12.9707 27.0693 12.2363C27.0693 11.502 27.3199 10.883 27.821 10.3795C28.3221 9.87595 28.9276 9.62418 29.6376 9.62418C30.3684 9.62418 30.9843 9.87595 31.4855 10.3795C32.0075 10.883 32.2685 11.502 32.2685 12.2363Z" fill="black"/>
<path d="M44.3052 56C43.5326 56 43.0106 55.8007 42.7392 55.402C42.4677 55.0034 42.332 54.5628 42.332 54.0802V32.8683C42.332 32.3857 42.4677 31.9556 42.7392 31.5779C43.0106 31.1793 43.5326 30.98 44.3052 30.98L58.0157 30.98C58.7883 30.98 59.1954 31.5045 59.2372 32.5536C59.279 33.6236 58.8718 34.1586 58.0157 34.1586H46.0278V52.8214H58.047C58.8196 52.8214 59.2163 53.3354 59.2372 54.3635C59.279 55.4545 58.8822 56 58.047 56H44.3052ZM54.0458 42.9707C54.0458 43.705 53.7848 44.324 53.2628 44.8275C52.7617 45.3311 52.1457 45.5829 51.4149 45.5829C50.705 45.5829 50.0995 45.3311 49.5983 44.8275C49.0972 44.324 48.8467 43.705 48.8467 42.9707C48.8467 42.2364 49.0972 41.6174 49.5983 41.1139C50.0995 40.6103 50.705 40.3586 51.4149 40.3586C52.1457 40.3586 52.7617 40.6103 53.2628 41.1139C53.7848 41.6174 54.0458 42.2364 54.0458 42.9707Z" fill="black"/>
<path d="M31.4542 54.4754C31.4542 55.4825 30.8382 55.9861 29.6063 55.9861C28.3743 55.9861 27.7584 55.4825 27.7584 54.4754V46.1039L20.7426 32.697C20.6173 32.4242 20.5547 32.141 20.5547 31.8472C20.5547 31.2388 20.9097 30.7877 21.6196 30.494H21.5883C22.0476 30.3261 22.413 30.2422 22.6845 30.2422C23.2274 30.2422 23.645 30.5149 23.9373 31.0605L29.6376 41.8238C30.0552 41.0265 30.5041 40.1768 30.9843 39.2746C31.4646 38.3514 31.9448 37.4177 32.4251 36.4736C32.9262 35.5294 33.4169 34.5958 33.8971 33.6726C34.3774 32.7494 34.8367 31.8787 35.2752 31.0605C35.4423 30.8087 35.6198 30.6094 35.8077 30.4625C36.0165 30.3156 36.267 30.2422 36.5594 30.2422C36.8517 30.2422 37.1962 30.3261 37.5929 30.494H37.5616C38.2924 30.8087 38.6578 31.2703 38.6578 31.8787C38.6578 32.0046 38.6474 32.141 38.6265 32.2878C38.6056 32.4137 38.5534 32.5501 38.4699 32.697C38.282 33.0746 38.0419 33.5362 37.7495 34.0817C37.4781 34.6273 37.0814 35.3931 36.5594 36.3792C36.0582 37.3443 35.4005 38.6137 34.5862 40.1873C33.7719 41.7399 32.7278 43.7436 31.4542 46.1984V54.4754Z" fill="black"/>
<path d="M66.9888 25.423C66.2162 25.423 65.6942 25.2237 65.4228 24.825C65.1513 24.4264 65.0156 23.9858 65.0156 23.5032V1.75625C65.0156 0.749153 65.6211 0.245605 66.8322 0.245605C68.085 0.245605 68.7114 0.749153 68.7114 1.75625V22.2443H80.7717C81.5234 22.2443 81.8992 22.7584 81.8992 23.7865C81.941 24.8775 81.5651 25.423 80.7717 25.423H66.9888Z" fill="black"/>
<path d="M51.5627 3.24159L44.7035 24.3906V24.3591C44.5783 24.6738 44.4008 24.9361 44.1711 25.1459C43.9623 25.3347 43.7013 25.4292 43.3881 25.4292C43.2211 25.4292 43.054 25.4082 42.887 25.3662C42.7408 25.3452 42.5842 25.3138 42.4172 25.2718H42.4485C41.2583 24.8941 40.8198 24.2227 41.133 23.2576L48.2741 1.4477C48.3785 1.112 48.5559 0.828755 48.8065 0.597963C49.078 0.36717 49.3912 0.230793 49.7461 0.18883C50.1011 0.125886 50.4456 0.0839235 50.7797 0.0629426C51.1138 0.0209809 51.3748 0 51.5627 0C51.7506 0 52.0116 0.0209809 52.3457 0.0629426C52.6798 0.0839235 53.0243 0.115395 53.3793 0.157358C53.6716 0.19932 53.9535 0.356679 54.2249 0.629434C54.5172 0.902189 54.7365 1.17494 54.8826 1.4477C56.0519 5.05646 57.2317 8.69669 58.4218 12.3684C59.6329 16.0191 60.8231 19.6488 61.9924 23.2576C62.2847 24.2227 61.8462 24.8941 60.6769 25.2718C60.5099 25.3138 60.3533 25.3452 60.2071 25.3662C60.0818 25.4082 59.9357 25.4292 59.7686 25.4292C59.4763 25.4292 59.2049 25.3347 58.9543 25.1459C58.7246 24.9361 58.5576 24.6738 58.4532 24.3591V24.3906L51.5627 3.24159Z" fill="black"/>
<path d="M8.92224 14.7247H6.51058C6.15561 14.7247 5.87373 14.5883 5.66493 14.3156C5.47701 14.0218 5.38304 13.6337 5.38304 13.1511C5.38304 12.0811 5.82153 11.546 6.6985 11.546H10.363C11.1355 11.546 11.6784 11.3257 11.9916 10.8851C12.3048 10.4445 12.4614 9.96196 12.4614 9.43744V5.37758C12.4614 4.85305 12.3048 4.37049 11.9916 3.92988C11.6784 3.48928 11.1355 3.26898 10.363 3.26898H3.75439V23.7885C3.75439 24.7956 3.13842 25.2992 1.90649 25.2992C0.67456 25.2992 0.0585938 24.7956 0.0585938 23.7885V1.97864C0.0585938 1.22331 0.246516 0.719766 0.622359 0.467992C1.01908 0.216219 1.48889 0.090332 2.03177 0.090332H11.146C11.6889 0.090332 12.2526 0.205728 12.8373 0.43652C13.4219 0.667314 13.9857 0.96105 14.5286 1.31773H14.4973C15.0401 1.71637 15.4577 2.2409 15.7501 2.89132C16.0424 3.52075 16.1886 4.25509 16.1886 5.09434V9.68921C16.1886 11.3887 15.6248 12.658 14.4973 13.4973C14.2676 13.6651 14.017 13.8225 13.7456 13.9694C13.495 14.1162 13.234 14.2631 12.9626 14.41L17.9738 22.7185C18.0364 22.8234 18.0991 22.9598 18.1617 23.1276C18.2244 23.2955 18.2557 23.4319 18.2557 23.5368C18.2557 24.0403 17.9007 24.5229 17.1908 24.9845V24.953C16.7106 25.2467 16.3034 25.3936 15.9693 25.3936C15.4891 25.3936 15.1028 25.1523 14.8105 24.6698L14.8418 24.7012L8.92224 14.7247Z" fill="black"/>
</svg>
