<svg width="128" height="128" viewBox="0 0 128 128" fill="none" xmlns="http://www.w3.org/2000/svg">
<rect width="128" height="128" rx="24" fill="white"/>
<rect width="128" height="128" rx="24" fill="url(#paint0_linear_25_65)"/>
<path fill-rule="evenodd" clip-rule="evenodd" d="M23.6577 63.5C26.3702 65.9825 31.7867 70.6446 38.5078 74.9028C46.2663 79.8182 55.4188 83.9718 64 83.9718C72.5812 83.9718 81.7337 79.8182 89.4922 74.9028C96.2133 70.6446 101.63 65.9825 104.342 63.5C101.63 61.0175 96.2133 56.3554 89.4922 52.0972C81.7337 47.1818 72.5812 43.0282 64 43.0282C55.4188 43.0282 46.2663 47.1818 38.5078 52.0972C31.7867 56.3554 26.3702 61.0175 23.6577 63.5ZM35.7969 47.855C43.8079 42.7797 53.9618 38 64 38C74.0382 38 84.1921 42.7797 92.2031 47.855C100.279 52.9713 106.527 58.6155 108.824 60.7873C110.392 62.2708 110.392 64.7292 108.824 66.2127C106.527 68.3845 100.279 74.0287 92.2031 79.145C84.1921 84.2203 74.0382 89 64 89C53.9618 89 43.8079 84.2203 35.7969 79.145C27.7213 74.0287 21.4728 68.3845 19.1764 66.2127C17.6079 64.7292 17.6079 62.2708 19.1764 60.7873C21.4728 58.6155 27.7213 52.9713 35.7969 47.855Z" fill="black"/>
<path d="M67.9958 58.5778C69.125 57.4984 69.6896 56.1717 69.6896 54.5976C69.6896 53.0235 69.125 51.6968 67.9958 50.6175C66.9118 49.5381 65.5793 48.9984 63.9985 48.9984C62.4628 48.9984 61.153 49.5381 60.0689 50.6175C58.9849 51.6968 58.4429 53.0235 58.4429 54.5976C58.4429 56.1717 58.9849 57.4984 60.0689 58.5778C61.153 59.6571 62.4628 60.1968 63.9985 60.1968C65.5793 60.1968 66.9118 59.6571 67.9958 58.5778Z" fill="black"/>
<path d="M56.9002 74.8544C58.0162 73.7751 58.5743 72.4483 58.5743 70.8743C58.5743 69.3002 58.0162 67.9735 56.9002 66.8941C55.8288 65.8148 54.5118 65.2751 52.9494 65.2751C51.4315 65.2751 50.1369 65.8148 49.0655 66.8941C47.9941 67.9735 47.4584 69.3002 47.4584 70.8743C47.4584 72.4483 47.9941 73.7751 49.0655 74.8544C50.1369 75.9338 51.4315 76.4735 52.9494 76.4735C54.5118 76.4735 55.8288 75.9338 56.9002 74.8544Z" fill="black"/>
<path d="M78.9988 74.8544C80.1149 73.7751 80.6729 72.4483 80.6729 70.8743C80.6729 69.3002 80.1149 67.9735 78.9988 66.8941C77.9274 65.8148 76.6105 65.2751 75.048 65.2751C73.5302 65.2751 72.2356 65.8148 71.1642 66.8941C70.0928 67.9735 69.5571 69.3002 69.5571 70.8743C69.5571 72.4483 70.0928 73.7751 71.1642 74.8544C72.2356 75.9338 73.5302 76.4735 75.048 76.4735C76.6105 76.4735 77.9274 75.9338 78.9988 74.8544Z" fill="black"/>
<defs>
<linearGradient id="paint0_linear_25_65" x1="0" y1="0" x2="128" y2="64" gradientUnits="userSpaceOnUse">
<stop stop-color="#FFC7F6"/>
<stop offset="0.5" stop-color="#FFF6C7"/>
<stop offset="1" stop-color="#C7F6FF"/>
</linearGradient>
</defs>
</svg>
